<svg width="24" height="24" viewBox="0 0 24 24" fill="none" xmlns="http://www.w3.org/2000/svg">
<path d="M19 3H12C10.8954 3 10 3.89543 10 5V6.5V10H5C3.89543 10 3 10.8954 3 12V19C3 20.1046 3.89543 21 5 21H12C13.1046 21 14 20.1046 14 19V14H17.5H19C20.1046 14 21 13.1046 21 12V5C21 3.89543 20.1046 3 19 3Z" fill="#060B2D" fill-opacity="0.15"/>
<path d="M10 10H5C3.89543 10 3 10.8954 3 12V19C3 20.1046 3.89543 21 5 21H12C13.1046 21 14 20.1046 14 19V14M10 10H12C13.1046 10 14 10.8954 14 12V14M10 10V6.5V5C10 3.89543 10.8954 3 12 3H19C20.1046 3 21 3.89543 21 5V12C21 13.1046 20.1046 14 19 14H17.5H14" stroke="#060B2D" stroke-width="2" stroke-linecap="round" stroke-linejoin="round"/>
</svg>
