<svg width="228" height="178" viewBox="0 0 228 178" fill="none" xmlns="http://www.w3.org/2000/svg">
<path d="M175.247 76.5154L174.267 76.3163L174.017 77.546L175.271 77.5151L175.247 76.5154ZM52.7534 76.5154L52.7288 77.5151L53.9833 77.546L53.7333 76.3163L52.7534 76.5154ZM83.9111 89.7497C84.3251 90.1152 84.9571 90.0758 85.3225 89.6617C85.688 89.2477 85.6486 88.6157 85.2345 88.2503L83.9111 89.7497ZM122.166 105.669L121.186 105.47L120.936 106.699L122.191 106.668L122.166 105.669ZM105.834 105.669L105.809 106.668L107.064 106.699L106.814 105.47L105.834 105.669ZM125.166 117.301C124.688 117.578 124.525 118.189 124.801 118.667C125.078 119.145 125.689 119.309 126.167 119.032L125.166 117.301ZM107.424 106.944C107.949 107.115 108.513 106.828 108.684 106.303C108.855 105.778 108.568 105.213 108.043 105.042L107.424 106.944ZM101.833 119.032C102.311 119.309 102.922 119.145 103.199 118.667C103.475 118.189 103.312 117.578 102.834 117.301L101.833 119.032ZM114 109L114.707 108.293C114.317 107.902 113.683 107.902 113.293 108.293L114 109ZM113 124C113 124.552 113.448 125 114 125C114.552 125 115 124.552 115 124H113ZM118.293 114.707C118.683 115.098 119.317 115.098 119.707 114.707C120.098 114.317 120.098 113.683 119.707 113.293L118.293 114.707ZM108.293 113.293C107.902 113.683 107.902 114.317 108.293 114.707C108.683 115.098 109.317 115.098 109.707 114.707L108.293 113.293ZM51.5 175.5C24.438 175.5 2.5 153.562 2.5 126.5H0.5C0.5 154.667 23.3335 177.5 51.5 177.5V175.5ZM176.5 175.5H51.5V177.5H176.5V175.5ZM225.5 126.5C225.5 153.562 203.562 175.5 176.5 175.5V177.5C204.667 177.5 227.5 154.667 227.5 126.5H225.5ZM176.5 77.5C203.562 77.5 225.5 99.438 225.5 126.5H227.5C227.5 98.3335 204.667 75.5 176.5 75.5V77.5ZM175.271 77.5151C175.68 77.5051 176.089 77.5 176.5 77.5V75.5C176.073 75.5 175.647 75.5053 175.222 75.5158L175.271 77.5151ZM175.5 64C175.5 68.219 175.075 72.3378 174.267 76.3163L176.227 76.7146C177.062 72.6058 177.5 68.3536 177.5 64H175.5ZM114 2.5C147.966 2.5 175.5 30.0345 175.5 64H177.5C177.5 28.9299 149.07 0.5 114 0.5V2.5ZM52.5 64C52.5 30.0345 80.0345 2.5 114 2.5V0.5C78.9299 0.5 50.5 28.9299 50.5 64H52.5ZM53.7333 76.3163C52.9247 72.3378 52.5 68.219 52.5 64H50.5C50.5 68.3536 50.9383 72.6058 51.7734 76.7146L53.7333 76.3163ZM51.5 77.5C51.9107 77.5 52.3203 77.5051 52.7288 77.5151L52.778 75.5158C52.3533 75.5053 51.9273 75.5 51.5 75.5V77.5ZM2.5 126.5C2.5 99.438 24.438 77.5 51.5 77.5V75.5C23.3335 75.5 0.5 98.3335 0.5 126.5H2.5ZM175.5 64V76.5H177.5V64H175.5ZM50.5 64V76.5H52.5V64H50.5ZM51.5 77.5C63.9277 77.5 75.2726 82.1253 83.9111 89.7497L85.2345 88.2503C76.2447 80.3157 64.4335 75.5 51.5 75.5V77.5ZM105.667 118C102.537 118 100 115.463 100 112.333H98C98 116.568 101.432 120 105.667 120V118ZM122.333 118H105.667V120H122.333V118ZM128 112.333C128 115.463 125.463 118 122.333 118V120C126.568 120 130 116.568 130 112.333H128ZM122.333 106.667C125.463 106.667 128 109.204 128 112.333H130C130 108.099 126.568 104.667 122.333 104.667V106.667ZM122.191 106.668C122.238 106.667 122.286 106.667 122.333 106.667V104.667C122.269 104.667 122.205 104.667 122.142 104.669L122.191 106.668ZM121.333 104C121.333 104.504 121.283 104.996 121.186 105.47L123.146 105.868C123.269 105.264 123.333 104.639 123.333 104H121.333ZM114 96.6667C118.05 96.6667 121.333 99.9499 121.333 104H123.333C123.333 98.8453 119.155 94.6667 114 94.6667V96.6667ZM106.667 104C106.667 99.9499 109.95 96.6667 114 96.6667V94.6667C108.845 94.6667 104.667 98.8453 104.667 104H106.667ZM106.814 105.47C106.717 104.996 106.667 104.504 106.667 104H104.667C104.667 104.639 104.731 105.264 104.854 105.868L106.814 105.47ZM105.667 106.667C105.714 106.667 105.762 106.667 105.809 106.668L105.858 104.669C105.795 104.667 105.731 104.667 105.667 104.667V106.667ZM100 112.333C100 109.204 102.537 106.667 105.667 106.667V104.667C101.432 104.667 98 108.099 98 112.333H100ZM121.333 104V105.667H123.333V104H121.333ZM104.667 104V105.667H106.667V104H104.667ZM128 112.333C128 114.439 126.854 116.325 125.166 117.301L126.167 119.032C128.465 117.703 130 115.163 130 112.333H128ZM105.667 106.667C106.282 106.667 106.872 106.764 107.424 106.944L108.043 105.042C107.294 104.798 106.495 104.667 105.667 104.667V106.667ZM102.834 117.301C101.146 116.325 100 114.439 100 112.333H98C98 115.163 99.535 117.703 101.833 119.032L102.834 117.301ZM113 109V124H115V109H113ZM119.707 113.293L114.707 108.293L113.293 109.707L118.293 114.707L119.707 113.293ZM113.293 108.293L108.293 113.293L109.707 114.707L114.707 109.707L113.293 108.293Z" fill="#060B2D"/>
</svg>
